#!OML:ASF H:\IndianDance\Patient Classification 1\Patient 1\Session 1\dancer.ASF
:FULLY-SPECIFIED
:DEGREES
3152
root -8.18088 16.0107 12.7374 186.074 -2.7395 -178.808
lowerback 5.63806 4.90183 1.35253
upperback -6.73206 6.45407 -0.402371
thorax -10.1201 2.89584 -2.07146
lowerneck -15.5328 -5.54713 -4.98064
upperneck 18.4736 -6.50183 -1.07323
head 8.44578 -3.63884 -0.331379
rclavicle -1.29117e-014 7.45443e-016
rhumerus 40.6742 37.1885 -31.1119
rradius 56.9807
rwrist -39.1263
rhand -31.5939 -20.387
rfingers 7.12502
rthumb -4.85664 -50.3113
lclavicle -1.29117e-014 7.45443e-016
lhumerus 58.2521 30.7003 2.3141
lradius 70.246
lwrist -8.61305
lhand -66.3866 -424.247
lfingers 7.12502
lthumb -38.2081 321.495
rfemur -21.513 -6.19669 8.78709
rtibia 37.5505
rfoot 12.4065 -10.486
rtoes -14.3763
lfemur -49.9311 35.0453 -24.6071
ltibia 90.9434
lfoot -3.85625 -3.94066
ltoes -12.9334
3153
root -8.05572 15.894 12.6551 186.04 -3.74304 -178.647
lowerback 5.53956 4.77715 1.36112
upperback -6.8668 6.26667 -0.506131
thorax -10.2045 2.79249 -2.15829
lowerneck -15.359 -5.54937 -5.06367
upperneck 18.6822 -6.55536 -0.857841
head 8.49691 -3.65556 -0.252656
rclavicle 3.47376e-014 -5.86415e-015
rhumerus 39.9855 38.7445 -28.9159
rradius 60.9466
rwrist -34.4066
rhand -31.8437 -17.1054
rfingers 7.12502
rthumb -5.09785 -47.0241
lclavicle 3.47376e-014 -5.86415e-015
lhumerus 57.9266 30.2411 1.77443
lradius 70.2927
lwrist -8.60168
lhand -66.3237 -424.214
lfingers 7.12502
lthumb -38.1487 321.544
rfemur -20.6637 -6.82395 9.5853
rtibia 38.1039
rfoot 8.86887 -11.9602
rtoes -16.3434
lfemur -50.917 34.8008 -26.1092
ltibia 89.1466
lfoot -4.7673 -3.66816
ltoes -14.8706
3154
root -7.93846 15.7783 12.5748 186.008 -4.75018 -178.352
lowerback 5.49253 4.65323 1.56386
upperback -7.01338 6.10534 -0.561282
thorax -10.3178 2.68757 -2.30891
lowerneck -15.2327 -5.53766 -5.13764
upperneck 18.8935 -6.57509 -0.711215
head 8.55428 -3.66271 -0.195526
rclavicle -7.09413e-015 -3.97569e-016
rhumerus 39.269 40.1923 -26.8132
rradius 64.9539
rwrist -29.268
rhand -32.1791 -13.5441
rfingers 7.12502
rthumb -5.42167 -43.4547
lclavicle -7.09413e-015 -3.97569e-016
lhumerus 57.4454 29.7897 1.17505
lradius 70.4202
lwrist -8.6574
lhand -66.2863 -424.303
lfingers 7.12502
lthumb -38.1134 321.465
rfemur -19.9384 -7.6166 10.4632
rtibia 38.6545
rfoot 5.5406 -13.2717
rtoes -17.307
lfemur -51.7311 34.4486 -27.4305
ltibia 87.1026
lfoot -5.52531 -3.3416
ltoes -16.011
3155
root -7.82977 15.6653 12.4961 185.967 -5.75639 -177.912
lowerback 5.47138 4.53502 1.96153
upperback -7.15966 5.97876 -0.551627
thorax -10.4338 2.58653 -2.50461
lowerneck -15.1599 -5.51921 -5.22147
upperneck 19.1077 -6.56462 -0.635701
head 8.61969 -3.66334 -0.158427
rclavicle -8.97761e-014 -2.20651e-014
rhumerus 38.5034 41.5019 -24.8034
rradius 68.9727
rwrist -23.8701
rhand -32.5533 -9.6692
rfingers 7.12502
rthumb -5.78292 -39.5703
lclavicle -8.97761e-014 -2.20651e-014
lhumerus 56.8359 29.3508 0.564008
lradius 70.6029
lwrist -8.81802
lhand -66.2658 -424.427
lfingers 7.12502
lthumb -38.094 321.346
rfemur -19.3028 -8.50926 11.4006
rtibia 39.1278
rfoot 2.37582 -14.3144
rtoes -17.5408
lfemur -52.3614 34.0211 -28.5371
ltibia 84.9009
lfoot -6.10731 -2.92006
ltoes -16.3214
3156
root -7.72983 15.5552 12.4187 185.911 -6.76016 -177.328
lowerback 5.44603 4.42932 2.54042
upperback -7.29996 5.89458 -0.469453
thorax -10.5307 2.49456 -2.72748
lowerneck -15.14 -5.49917 -5.31966
upperneck 19.3345 -6.52828 -0.63987
head 8.69643 -3.66115 -0.144317
rclavicle 1.54804e-014 7.95139e-015
rhumerus 37.6434 42.6681 -22.8888
rradius 73.0185
rwrist -18.4369
rhand -33.0442 -5.58568
rfingers 7.12502
rthumb -6.25692 -35.4733
lclavicle 1.54804e-014 7.95139e-015
lhumerus 56.12 28.933 -0.0296281
lradius 70.8233
lwrist -9.07792
lhand -66.2536 -424.513
lfingers 7.12502
lthumb -38.0824 321.264
rfemur -18.6953 -9.40469 12.4019
rtibia 39.4897
rfoot -0.638394 -15.056
rtoes -17.4444
lfemur -52.8201 33.5422 -29.4078
ltibia 82.6362
lfoot -6.51118 -2.36179
ltoes -15.9206
